<?xml version="1.0" encoding="utf-8"?>
<!-- Generator: Adobe Illustrator 16.0.0, SVG Export Plug-In . SVG Version: 6.00 Build 0)  -->
<!DOCTYPE svg PUBLIC "-//W3C//DTD SVG 1.1//EN" "http://www.w3.org/Graphics/SVG/1.1/DTD/svg11.dtd">
<svg version="1.1" id="Capa_1" xmlns="http://www.w3.org/2000/svg" xmlns:xlink="http://www.w3.org/1999/xlink" x="0px" y="0px"
	 width="417.109px" height="71.783px" viewBox="0 0 417.109 71.783" enable-background="new 0 0 417.109 71.783"
	 xml:space="preserve">
<g>
	<path fill="#EE7D00" d="M68.327,38.765c1.174-0.453,2.739-1.531,4.694-3.229c1.955-1.698,3.449-4.125,4.479-7.285
		c0.708-2.172,0.931-4.186,0.666-6.043c-0.264-1.854-0.985-3.364-2.164-4.53c-1.181-1.164-2.637-1.904-4.37-2.222
		c-1.733-0.314-3.864-0.473-6.391-0.473h-30.74L20.868,56.8h14.984l3.89-11.932l4.712-14.529l0.025,0.003l1.918-5.882h12.438
		c0.79,0,1.475,0.08,2.055,0.238c0.582,0.156,1.084,0.521,1.51,1.094c0.425,0.574,0.457,1.412,0.096,2.518
		c-0.54,1.658-1.453,2.705-2.74,3.139c-1.288,0.436-2.817,0.652-4.595,0.652h-7.881l-3.065,9.477h4.598L52.436,56.8h16.585
		l-5.038-16.703C65.704,39.661,67.152,39.218,68.327,38.765"/>
	<polygon fill="#EE7D00" points="92.931,40.688 117.054,40.688 120.144,31.212 96.081,31.212 98.283,24.46 124.538,24.46 
		127.627,14.983 86.388,14.983 72.752,56.8 114.585,56.8 117.676,47.323 90.769,47.323 	"/>
	<path fill="#EE7D00" d="M162.724,24.46c-0.282,0.869-0.838,2.725-1.667,5.568c-0.829,2.842-1.628,5.449-2.4,7.819
		c-0.871-1.937-1.576-3.438-2.116-4.503c-0.542-1.066-1.351-2.488-2.431-4.266l-8.256-14.096h-12.379L119.84,56.8h14.809
		l2.896-8.885l4.379-14.156l2.865,5.746L154.49,56.8h12.438l13.635-41.816h-14.749L162.724,24.46z"/>
	<polygon fill="#EE7D00" points="226.819,24.46 229.909,14.983 185.131,14.983 182.041,24.46 196.908,24.46 186.364,56.8 
		201.468,56.8 212.012,24.46 	"/>
	<polygon fill="#EE7D00" points="295.662,14.983 282.027,56.8 297.013,56.8 310.647,14.983 	"/>
	<polygon fill="#EE7D00" points="374.919,46.612 385.231,14.983 370.187,14.983 356.552,56.801 392.917,56.801 396.241,46.612 	"/>
	<path fill="#EE7D00" d="M277.413,14.983c0,0-17.625,24.042-18.823,25.777c-0.017-1.168-1.167-11.074-2.017-18.258
		c-0.502-4.231-0.898-7.52-0.898-7.52h-13.326h-4.826L208.25,56.8h15.224l3.471-5.287l-0.006-0.006l0.763-1.146l0.243-0.373h0.003
		h14.549l-0.408-9.237h-8.002l1.389-2.09l0.008,0.006l8.017-12.055l0.014-0.018l2.769,30.207h0.204h13.771h0.146l32.707-41.816
		L277.413,14.983L277.413,14.983z"/>
	<polygon fill="#EE7D00" points="348.386,14.983 331.327,14.983 299.687,56.8 316.094,56.8 320.565,49.987 320.655,49.987 
		333.518,49.987 333.69,40.749 326.795,40.749 326.719,40.749 336.132,26.593 336.737,56.8 352.877,56.8 	"/>
</g>
</svg>
