<?xml version="1.0" encoding="utf-8"?>
<!-- Generator: Adobe Illustrator 16.0.0, SVG Export Plug-In . SVG Version: 6.00 Build 0)  -->
<!DOCTYPE svg PUBLIC "-//W3C//DTD SVG 1.1//EN" "http://www.w3.org/Graphics/SVG/1.1/DTD/svg11.dtd">
<svg version="1.1" id="Capa_1" xmlns="http://www.w3.org/2000/svg" xmlns:xlink="http://www.w3.org/1999/xlink" x="0px" y="0px"
	 width="464.055px" height="71.783px" viewBox="0 0 464.055 71.783" enable-background="new 0 0 464.055 71.783"
	 xml:space="preserve">
<g>
	<polygon fill="#3C3C3B" points="71.002,13.813 55.503,13.813 41.389,57.097 56.888,57.097 	"/>
	<polygon fill="#3C3C3B" points="50.158,13.813 34.66,13.813 20.543,57.097 36.047,57.097 	"/>
	<path fill="#EE7D00" d="M116.033,38.762c1.176-0.455,2.744-1.535,4.697-3.231c1.956-1.7,3.445-4.127,4.475-7.288
		c0.71-2.172,0.931-4.184,0.666-6.042c-0.259-1.854-0.983-3.365-2.163-4.53c-1.182-1.165-2.638-1.903-4.368-2.22
		c-1.737-0.317-3.868-0.475-6.392-0.475H82.205L68.569,56.796H83.56l3.886-11.934l4.713-14.528h0.02l1.927-5.881h12.432
		c0.794,0,1.477,0.08,2.054,0.239c0.582,0.158,1.085,0.521,1.511,1.095c0.423,0.574,0.459,1.412,0.094,2.515
		c-0.536,1.658-1.452,2.705-2.734,3.14c-1.29,0.438-2.821,0.655-4.598,0.655h-7.883l-3.065,9.476h4.6l3.625,15.223h16.583
		l-5.035-16.705C113.411,39.659,114.856,39.213,116.033,38.762"/>
	<polygon fill="#EE7D00" points="140.64,40.68 164.765,40.68 167.854,31.206 143.79,31.206 145.99,24.454 172.245,24.454 
		175.344,14.975 134.093,14.975 120.456,56.796 162.292,56.796 165.387,47.321 138.474,47.321 	"/>
	<path fill="#EE7D00" d="M210.436,24.454c-0.28,0.87-0.839,2.727-1.667,5.57c-0.827,2.842-1.629,5.448-2.402,7.816
		c-0.873-1.936-1.574-3.435-2.114-4.5c-0.538-1.069-1.349-2.492-2.434-4.266l-8.255-14.099h-12.378l-13.633,41.821h14.801
		l2.899-8.887l4.383-14.157l2.861,5.749l9.701,17.295h12.44l13.631-41.821h-14.742L210.436,24.454z"/>
	<polygon fill="#EE7D00" points="274.536,24.454 277.626,14.975 232.845,14.975 229.753,24.454 244.624,24.454 234.074,56.796 
		249.181,56.796 259.73,24.454 	"/>
	<polygon fill="#EE7D00" points="343.385,14.975 329.746,56.796 344.732,56.796 358.374,14.975 	"/>
	<polygon fill="#EE7D00" points="422.644,46.607 432.961,14.975 417.916,14.975 404.276,56.796 440.649,56.796 443.974,46.607 	"/>
	<path fill="#EE7D00" d="M325.134,14.975c0,0-17.627,24.044-18.822,25.779c-0.022-1.167-1.172-11.073-2.018-18.255
		c-0.502-4.233-0.904-7.523-0.904-7.523h-13.323h-4.831l-29.267,41.821h15.221l3.473-5.285l-0.007-0.002l0.76-1.152l0.246-0.373
		h0.006h14.549l-0.411-9.238h-8.004l1.39-2.089l0.009,0.003l8.014-12.053l0.015-0.016l2.769,30.206h0.208h13.772h0.142
		l32.715-41.821H325.134z"/>
	<polygon fill="#EE7D00" points="396.113,14.975 379.052,14.975 347.408,56.796 363.817,56.796 368.291,49.983 368.38,49.983 
		381.245,49.983 381.416,40.745 374.52,40.745 374.44,40.745 383.854,26.59 384.458,56.796 400.601,56.796 	"/>
</g>
</svg>
