<?xml version="1.0" encoding="utf-8"?>
<!-- Generator: Adobe Illustrator 16.0.0, SVG Export Plug-In . SVG Version: 6.00 Build 0)  -->
<!DOCTYPE svg PUBLIC "-//W3C//DTD SVG 1.1//EN" "http://www.w3.org/Graphics/SVG/1.1/DTD/svg11.dtd">
<svg version="1.1" id="Capa_1" xmlns="http://www.w3.org/2000/svg" xmlns:xlink="http://www.w3.org/1999/xlink" x="0px" y="0px"
	 width="417.109px" height="71.783px" viewBox="0 0 417.109 71.783" enable-background="new 0 0 417.109 71.783"
	 xml:space="preserve">
<g>
	<path fill="#010000" d="M398.69,67.219c-1.025,3.326-2.19,4.564-5.494,4.564H3.602c-3.306,0-4.255-2.277-3.178-5.984L19.794,4.627
		C20.759,1.098,21.917,0,25.222,0l386.411,0.047c3.812-0.08,6.272,1.19,5.24,4.447L398.69,67.219z"/>
	<path fill="#EE7D00" d="M64.732,38.765c1.174-0.454,2.74-1.53,4.695-3.229c1.954-1.696,3.448-4.125,4.479-7.285
		c0.708-2.17,0.93-4.185,0.666-6.041c-0.263-1.855-0.986-3.365-2.164-4.531c-1.181-1.164-2.636-1.904-4.37-2.221
		c-1.734-0.315-3.865-0.473-6.391-0.473h-30.74L17.273,56.8h14.984l3.89-11.931l4.712-14.529l0.025,0.003l1.918-5.884H55.24
		c0.79,0,1.474,0.08,2.055,0.238c0.581,0.157,1.083,0.523,1.509,1.096c0.425,0.572,0.457,1.412,0.096,2.517
		c-0.54,1.658-1.453,2.705-2.74,3.14c-1.287,0.435-2.818,0.651-4.595,0.651h-7.881l-3.065,9.478h4.597L48.842,56.8h16.584
		l-5.038-16.702C62.109,39.662,63.558,39.218,64.732,38.765"/>
	<polygon fill="#EE7D00" points="89.336,40.689 113.458,40.689 116.549,31.213 92.486,31.213 94.688,24.461 120.943,24.461 
		124.033,14.983 82.793,14.983 69.158,56.799 110.991,56.799 114.082,47.322 87.173,47.322 	"/>
	<path fill="#EE7D00" d="M159.129,24.46c-0.282,0.869-0.839,2.726-1.667,5.567c-0.83,2.844-1.629,5.449-2.4,7.818
		c-0.871-1.934-1.576-3.436-2.116-4.501c-0.542-1.067-1.352-2.489-2.431-4.265l-8.256-14.098h-12.38L116.246,56.8h14.807
		l2.897-8.885l4.379-14.156l2.865,5.746l9.702,17.295h12.438l13.634-41.817h-14.748L159.129,24.46z"/>
	<polygon fill="#EE7D00" points="223.226,24.46 226.315,14.982 181.536,14.982 178.446,24.46 193.314,24.46 182.769,56.8 
		197.873,56.8 208.417,24.46 	"/>
	<polygon fill="#EE7D00" points="292.067,14.983 278.434,56.799 293.419,56.799 307.054,14.983 	"/>
	<polygon fill="#EE7D00" points="371.323,46.612 381.636,14.983 366.593,14.983 352.957,56.801 389.322,56.801 392.646,46.612 	"/>
	<path fill="#EE7D00" d="M273.818,14.983c0,0-17.625,24.042-18.823,25.778c-0.017-1.168-1.167-11.075-2.017-18.26
		c-0.501-4.23-0.898-7.519-0.898-7.519h-13.327h-4.826l-29.271,41.815h15.223l3.471-5.287l-0.006-0.004l0.763-1.147l0.243-0.372
		h0.004h14.549l-0.408-9.24h-8.003l1.388-2.088l0.008,0.006l8.017-12.056l0.013-0.019l2.77,30.207h0.203h13.772h0.147l32.707-41.815
		H273.818z"/>
	<polygon fill="#EE7D00" points="344.792,14.983 327.732,14.983 296.091,56.799 312.499,56.799 316.971,49.988 317.062,49.988 
		329.923,49.988 330.096,40.748 323.2,40.748 323.122,40.748 332.536,26.592 333.144,56.799 349.281,56.799 	"/>
</g>
</svg>
